<svg width="120" height="120" viewBox="0 0 120 120" fill="none" xmlns="http://www.w3.org/2000/svg">
<g filter="url(#filter0_d)">
<circle cx="56" cy="52" r="50" fill="#F7941D"/>
</g>
<path d="M63.7833 53.8838C66.0667 55.4338 67.6667 57.5338 67.6667 60.3338V65.3338H74.3333V60.3338C74.3333 56.7005 68.3833 54.5505 63.7833 53.8838Z" fill="white"/>
<path d="M61 52.0003C64.6833 52.0003 67.6667 49.017 67.6667 45.3337C67.6667 41.6503 64.6833 38.667 61 38.667C60.2167 38.667 59.4833 38.8337 58.7833 39.067C60.1667 40.7837 61 42.967 61 45.3337C61 47.7003 60.1667 49.8837 58.7833 51.6003C59.4833 51.8337 60.2167 52.0003 61 52.0003Z" fill="white"/>
<path d="M51 52.0003C54.6834 52.0003 57.6667 49.017 57.6667 45.3337C57.6667 41.6503 54.6834 38.667 51 38.667C47.3167 38.667 44.3334 41.6503 44.3334 45.3337C44.3334 49.017 47.3167 52.0003 51 52.0003ZM51 42.0003C52.8334 42.0003 54.3334 43.5003 54.3334 45.3337C54.3334 47.167 52.8334 48.667 51 48.667C49.1667 48.667 47.6667 47.167 47.6667 45.3337C47.6667 43.5003 49.1667 42.0003 51 42.0003Z" fill="white"/>
<path d="M51 53.667C46.55 53.667 37.6667 55.9003 37.6667 60.3337V65.3337H64.3334V60.3337C64.3334 55.9003 55.45 53.667 51 53.667ZM61 62.0003H41V60.3503C41.3334 59.1503 46.5 57.0003 51 57.0003C55.5 57.0003 60.6667 59.1503 61 60.3337V62.0003Z" fill="white"/>
<defs>
<filter id="filter0_d" x="0" y="0" width="120" height="120" filterUnits="userSpaceOnUse" color-interpolation-filters="sRGB">
<feFlood flood-opacity="0" result="BackgroundImageFix"/>
<feColorMatrix in="SourceAlpha" type="matrix" values="0 0 0 0 0 0 0 0 0 0 0 0 0 0 0 0 0 0 127 0"/>
<feOffset dx="4" dy="8"/>
<feGaussianBlur stdDeviation="5"/>
<feColorMatrix type="matrix" values="0 0 0 0 0 0 0 0 0 0 0 0 0 0 0 0 0 0 0.08 0"/>
<feBlend mode="normal" in2="BackgroundImageFix" result="effect1_dropShadow"/>
<feBlend mode="normal" in="SourceGraphic" in2="effect1_dropShadow" result="shape"/>
</filter>
</defs>
</svg>
