<svg width="120" height="120" viewBox="0 0 120 120" fill="none" xmlns="http://www.w3.org/2000/svg">
<g filter="url(#filter0_d)">
<circle cx="56" cy="52" r="50" fill="#F7941D"/>
</g>
<path d="M59.3333 35.333H46C44.1667 35.333 42.6667 36.833 42.6667 38.6663V65.333C42.6667 67.1663 44.15 68.6663 45.9833 68.6663H66C67.8333 68.6663 69.3333 67.1663 69.3333 65.333V45.333L59.3333 35.333ZM66 65.333H46V38.6663H57.6667V46.9997H66V65.333Z" fill="white"/>
<path d="M51.05 50.3834C48.7667 52.6667 48.7667 56.3501 51.05 58.6334C52.9167 60.5001 55.7167 60.8167 57.9333 59.6167L61.0667 62.7501L63.4167 60.4001L60.2833 57.2667C61.4667 55.0501 61.1667 52.2501 59.3 50.3834C57.0167 48.1001 53.3167 48.1001 51.05 50.3834ZM56.9333 56.2667C55.95 57.2501 54.3667 57.2501 53.4 56.2667C52.4167 55.2834 52.4167 53.7001 53.4 52.7334C54.3833 51.7501 55.9667 51.7501 56.9333 52.7334C57.9167 53.7167 57.9167 55.2834 56.9333 56.2667Z" fill="white"/>
<defs>
<filter id="filter0_d" x="0" y="0" width="120" height="120" filterUnits="userSpaceOnUse" color-interpolation-filters="sRGB">
<feFlood flood-opacity="0" result="BackgroundImageFix"/>
<feColorMatrix in="SourceAlpha" type="matrix" values="0 0 0 0 0 0 0 0 0 0 0 0 0 0 0 0 0 0 127 0"/>
<feOffset dx="4" dy="8"/>
<feGaussianBlur stdDeviation="5"/>
<feColorMatrix type="matrix" values="0 0 0 0 0 0 0 0 0 0 0 0 0 0 0 0 0 0 0.08 0"/>
<feBlend mode="normal" in2="BackgroundImageFix" result="effect1_dropShadow"/>
<feBlend mode="normal" in="SourceGraphic" in2="effect1_dropShadow" result="shape"/>
</filter>
</defs>
</svg>
