<svg width="560" height="500" viewBox="0 0 560 500" fill="none" xmlns="http://www.w3.org/2000/svg">
<path d="M524.271 97.3958C544.282 126.54 539.854 164.293 539.854 164.293C539.854 164.293 502.982 154.796 482.971 125.652C462.96 96.5081 467.388 58.7543 467.388 58.7543C467.388 58.7543 504.26 68.252 524.271 97.3958Z" fill="#2F2E41"/>
<path d="M509.873 102.961C512.214 138.215 539.093 165.142 539.093 165.142C539.093 165.142 562.175 134.909 559.833 99.6543C557.492 64.3995 530.613 37.4731 530.613 37.4731C530.613 37.4731 507.531 67.7059 509.873 102.961Z" fill="#F7941D"/>
<path d="M280.125 0.734133L551.809 137.082C554.068 138.215 555.942 139.989 557.195 142.181C558.449 144.373 559.027 146.885 558.857 149.403L543.072 382.795C543.001 383.842 542.672 384.855 542.113 385.744C541.555 386.633 540.784 387.369 539.871 387.889C538.957 388.408 537.93 388.693 536.879 388.719C535.828 388.745 534.787 388.511 533.849 388.038L255.97 246.477L270.236 6.42364C270.303 5.29602 270.649 4.20267 271.244 3.24178C271.839 2.2809 272.664 1.48258 273.644 0.91852C274.625 0.354456 275.73 0.0423147 276.862 0.0101314C277.993 -0.0220519 279.114 0.226729 280.125 0.734133Z" fill="#D0CDE1"/>
<path d="M283.252 5.49016L548.263 138.489C550.466 139.594 552.294 141.325 553.517 143.463C554.74 145.601 555.303 148.051 555.137 150.507L539.74 378.167C539.671 379.188 539.35 380.176 538.805 381.043C538.26 381.91 537.509 382.629 536.618 383.135C535.727 383.642 534.724 383.92 533.699 383.945C532.674 383.971 531.659 383.742 530.744 383.281L259.69 245.197L273.606 11.0399C273.671 9.94 274.009 8.8735 274.589 7.93622C275.17 6.99894 275.974 6.22023 276.93 5.67002C277.887 5.11981 278.965 4.81534 280.069 4.78394C281.172 4.75255 282.266 4.99522 283.252 5.49016Z" fill="#3F3D56"/>
<path d="M294.866 23.1554L535.091 143.715C537.088 144.717 538.745 146.285 539.853 148.223C540.961 150.161 541.472 152.383 541.322 154.609L527.365 360.976C527.302 361.902 527.011 362.797 526.517 363.583C526.023 364.369 525.342 365.021 524.535 365.48C523.727 365.939 522.818 366.191 521.889 366.214C520.96 366.237 520.04 366.03 519.21 365.612L273.508 240.442L286.122 28.1862C286.181 27.1891 286.488 26.2223 287.014 25.3727C287.54 24.5231 288.269 23.8172 289.136 23.3185C290.003 22.8197 290.98 22.5437 291.98 22.5153C292.981 22.4868 293.972 22.7068 294.866 23.1554Z" fill="white"/>
<path d="M46.9907 361.32L319.022 498.073C321.553 499.344 324.348 500.004 327.182 500C330.016 499.996 332.809 499.329 335.337 498.052L536.579 396.079C538.938 393.723 538.609 390.232 537.854 387.612C537.488 386.343 536.989 385.116 536.366 383.951L508.943 369.553L278.376 254.721L264.601 247.421C260.954 245.493 256.893 244.478 252.766 244.461C248.64 244.444 244.571 245.427 240.908 247.326L46.9056 347.919C45.6713 348.557 44.6376 349.522 43.9189 350.709C43.2002 351.896 42.8245 353.259 42.8333 354.646C42.8421 356.033 43.2351 357.39 43.9689 358.568C44.7026 359.746 45.7484 360.699 46.9907 361.32Z" fill="#D0CDE1"/>
<path opacity="0.1" d="M46.9907 361.32L319.022 498.073C321.553 499.344 324.348 500.004 327.182 500C330.016 499.996 332.809 499.329 335.337 498.052L536.578 396.078C538.938 393.723 538.609 390.232 537.854 387.612L337.214 491.712C334.766 492.983 332.051 493.657 329.292 493.681C326.533 493.704 323.808 493.076 321.338 491.848L42.9304 353.394C42.6686 354.975 42.9218 356.598 43.6526 358.025C44.3835 359.451 45.5535 360.606 46.9907 361.32Z" fill="black"/>
<path opacity="0.1" d="M305.192 402.294L217.094 357.855C215.32 356.96 213.357 356.505 211.37 356.528C209.383 356.55 207.43 357.05 205.678 357.985L154.572 385.239C153.981 385.554 153.489 386.025 153.148 386.6C152.807 387.175 152.631 387.833 152.639 388.501C152.647 389.169 152.838 389.822 153.193 390.389C153.547 390.956 154.05 391.415 154.648 391.716L244.473 436.931C245.964 437.682 247.618 438.054 249.288 438.016C250.958 437.978 252.593 437.529 254.048 436.711L305.358 407.856C305.858 407.575 306.272 407.162 306.554 406.663C306.836 406.164 306.976 405.598 306.959 405.025C306.942 404.452 306.768 403.895 306.457 403.413C306.145 402.932 305.708 402.545 305.192 402.294Z" fill="black"/>
<path opacity="0.1" d="M512.675 394.862L417.874 445.135C416.783 445.713 415.569 446.022 414.334 446.034C413.099 446.046 411.879 445.762 410.776 445.206L142.922 309.994C142.168 309.613 141.534 309.03 141.093 308.31C140.651 307.59 140.419 306.761 140.423 305.917C140.427 305.073 140.666 304.246 141.113 303.53C141.561 302.814 142.2 302.236 142.958 301.862L235.533 256.124C236.928 255.434 238.465 255.078 240.022 255.084C241.579 255.089 243.113 255.456 244.503 256.155L512.633 391.01C512.989 391.188 513.289 391.462 513.5 391.799C513.71 392.137 513.824 392.525 513.828 392.923C513.833 393.321 513.727 393.712 513.524 394.054C513.321 394.396 513.027 394.675 512.675 394.862Z" fill="black"/>
<path d="M361.436 144.146L360.96 145.095L448.119 188.596L448.595 187.647L361.436 144.146Z" fill="#F7941D"/>
<path d="M361.428 156.903L360.944 157.847L448.127 202.363L448.61 201.42L361.428 156.903Z" fill="#F7941D"/>
<path d="M377.387 181.276L376.903 182.221L426.853 207.699L427.337 206.754L377.387 181.276Z" fill="#F7941D"/>
<path d="M104.493 234.396C104.493 234.396 83.2383 225.151 73.2552 234.917C63.2721 244.682 99.9841 241.468 104.493 234.396Z" fill="#3F3D56"/>
<path d="M67.792 190.552C74.9346 178.505 89.0657 177.943 89.0657 177.943C89.0657 177.943 102.836 176.186 111.669 194.534C119.902 211.636 131.266 228.148 113.498 232.151L110.289 222.18L108.302 232.894C105.772 233.075 103.234 233.118 100.7 233.023C81.6726 232.41 63.5521 233.203 64.1356 226.387C64.9112 217.327 60.9194 202.144 67.792 190.552Z" fill="#2F2E41"/>
<path d="M57.7975 408.947C57.7975 408.947 66.8145 425.663 72.6111 425.663C78.4077 425.663 77.7636 436.592 76.4755 439.164C75.1874 441.736 71.967 447.522 77.1196 455.88C78.9194 458.799 78.5974 462.111 77.4163 465.184C74.1072 473.796 61.2348 471.187 61.6455 461.973C61.65 461.871 61.6555 461.769 61.6619 461.666C62.306 451.379 57.1535 435.306 52.0009 431.449C46.8484 427.592 42.3399 417.305 42.3399 417.305L57.7975 408.947Z" fill="#FFB8B8"/>
<path d="M119.628 405.09C119.628 405.09 110.611 421.805 104.815 421.805C99.0179 421.805 99.662 432.735 100.95 435.306C102.238 437.878 105.459 443.664 100.306 452.022C98.5063 454.942 98.8282 458.253 100.009 461.327C103.318 469.939 116.191 467.33 115.78 458.115C115.776 458.014 115.77 457.911 115.764 457.808C115.12 447.522 120.272 431.449 125.425 427.591C130.577 423.734 135.086 413.447 135.086 413.447L119.628 405.09Z" fill="#FFB8B8"/>
<path d="M112.543 322.796L116.408 331.154C116.408 331.154 173.086 349.799 167.933 371.658C162.781 393.517 137.662 427.591 133.798 426.306C129.933 425.02 109.323 421.162 108.679 410.233C108.035 399.303 123.493 380.016 123.493 380.016L102.238 360.728L71.3099 360.085L44.9161 380.016C44.9161 380.016 72.6111 404.447 60.3738 414.09C48.1365 423.734 30.1025 430.163 27.5263 426.306C24.95 422.448 -4.03315 365.229 0.475331 360.085C4.98381 354.942 50.7127 335.655 50.7127 335.655L62.95 318.296L110.611 315.724L112.543 322.796Z" fill="#2F2E41"/>
<path d="M100.95 216.716C100.95 216.716 97.7298 237.932 104.171 240.504C110.611 243.075 91.2891 254.005 91.2891 254.005H80.3399L73.2552 239.218C73.2552 239.218 79.6959 227.645 75.8315 216.716C71.9671 205.786 100.95 216.716 100.95 216.716Z" fill="#FFB8B8"/>
<path opacity="0.1" d="M100.95 216.716C100.95 216.716 97.7298 237.932 104.171 240.504C110.611 243.075 91.2891 254.005 91.2891 254.005H80.3399L73.2552 239.218C73.2552 239.218 79.6959 227.645 75.8315 216.716C71.9671 205.786 100.95 216.716 100.95 216.716Z" fill="black"/>
<path d="M105.459 234.717C105.459 234.717 98.3739 242.432 97.0857 243.718C95.7976 245.004 90.001 252.076 77.7637 241.789C65.5263 231.503 64.2382 243.718 64.2382 243.718V320.868C64.2382 320.868 74.5433 316.367 82.9162 320.868C91.2891 325.368 108.679 319.582 108.679 319.582L111.899 239.861L105.459 234.717Z" fill="#D0CDE1"/>
<path d="M100.728 234.717C100.728 234.717 106.747 232.146 111.899 234.717C117.052 237.289 135.086 250.147 133.798 255.933C132.51 261.72 115.764 302.223 127.357 321.511C138.95 340.798 140.882 345.941 140.882 345.941L112.543 331.154C112.543 331.154 90.6451 317.653 92.5773 309.295C94.5095 300.937 100.728 234.717 100.728 234.717Z" fill="#3F3D56"/>
<path d="M75.1798 234.717C75.1798 234.717 61.6619 236.003 61.0178 237.289C60.3738 238.575 40.7297 244.04 42.0178 249.826C43.306 255.612 61.0178 307.367 53.289 317.01C45.5602 326.654 32.6788 340.155 37.1873 341.441C41.6958 342.727 49.4246 339.512 57.1534 341.441C64.8823 343.37 82.9162 327.297 80.984 309.938C79.0518 292.58 80.9688 239.218 75.1798 234.717Z" fill="#3F3D56"/>
<path d="M107.391 357.514V363.943C107.391 363.943 110.611 378.73 100.306 378.087C90.001 377.444 96.4417 360.086 96.4417 360.086L97.0857 354.299L107.391 357.514Z" fill="#FFB8B8"/>
<path d="M78.4077 358.157C78.4077 358.157 85.4925 372.944 78.4077 374.23C71.323 375.515 66.1704 365.872 66.1704 363.3C66.1704 360.728 78.4077 358.157 78.4077 358.157Z" fill="#FFB8B8"/>
<path d="M69.0687 210.608C69.7801 210.608 70.3569 209.457 70.3569 208.036C70.3569 206.616 69.7801 205.465 69.0687 205.465C68.3573 205.465 67.7806 206.616 67.7806 208.036C67.7806 209.457 68.3573 210.608 69.0687 210.608Z" fill="#FFB8B8"/>
<path d="M107.069 210.608C107.78 210.608 108.357 209.457 108.357 208.036C108.357 206.616 107.78 205.465 107.069 205.465C106.357 205.465 105.781 206.616 105.781 208.036C105.781 209.457 106.357 210.608 107.069 210.608Z" fill="#FFB8B8"/>
<path d="M57.7975 243.075C57.7975 243.075 41.6958 243.075 42.3399 249.504C42.9839 255.933 64.2382 366.515 64.2382 366.515C64.2382 366.515 73.2552 358.157 80.984 360.085L57.7975 243.075Z" fill="#3F3D56"/>
<path d="M120.272 245.004C120.272 245.004 136.374 248.218 136.374 257.862C136.374 267.506 113.187 360.085 109.967 360.085C106.747 360.085 94.5095 358.157 94.5095 354.942C94.5095 351.728 120.272 245.004 120.272 245.004Z" fill="#3F3D56"/>
<path opacity="0.2" d="M116.73 263.97L102.238 320.541C102.238 320.541 109.001 271.042 116.73 263.97Z" fill="black"/>
<path opacity="0.2" d="M60.3628 256.021L75.0192 329.984C75.0192 329.984 70.335 260.288 60.3628 256.021Z" fill="black"/>
<path d="M88.0688 227.002C98.3843 227.002 106.747 218.655 106.747 208.358C106.747 198.061 98.3843 189.713 88.0688 189.713C77.7532 189.713 69.3907 198.061 69.3907 208.358C69.3907 218.655 77.7532 227.002 88.0688 227.002Z" fill="#FFB8B8"/>
<path d="M70.9498 189.39L84.9109 182.091L104.19 185.077L108.179 202.663L98.2497 202.282L95.4758 195.821V202.175L90.894 202L88.2346 191.713L86.5728 202.663L70.2848 202.331L70.9498 189.39Z" fill="#2F2E41"/>
<path d="M280.3 81.1487L272.602 99.4258L337.583 133.474L359.475 69.5233" fill="#F2F2F2"/>
<path d="M336.085 122.26L364.791 54.8352L298.813 22.4269L271.104 88.2124L336.085 122.26Z" fill="#F7941D"/>
<path d="M297.254 48.2104L296.77 49.1554L346.721 74.6324L347.204 73.6875L297.254 48.2104Z" fill="white"/>
<path d="M293.509 57.1811L293.026 58.1261L342.976 83.6032L343.46 82.6582L293.509 57.1811Z" fill="white"/>
</svg>
