<svg width="28" height="28" viewBox="0 0 28 28" fill="none" xmlns="http://www.w3.org/2000/svg">
<path d="M25.6667 6.67325L20.3 2.16992L18.795 3.95492L24.1617 8.45825L25.6667 6.67325ZM9.19334 3.95492L7.70001 2.16992L2.33334 6.66159L3.83834 8.44659L9.19334 3.95492ZM14.5833 9.33325H12.8333V16.3333L18.375 19.6583L19.25 18.2233L14.5833 15.4583V9.33325ZM14 4.66659C8.20168 4.66659 3.50001 9.36826 3.50001 15.1666C3.50001 20.9649 8.19001 25.6666 14 25.6666C19.7983 25.6666 24.5 20.9649 24.5 15.1666C24.5 9.36826 19.7983 4.66659 14 4.66659ZM14 23.3333C9.48501 23.3333 5.83334 19.6816 5.83334 15.1666C5.83334 10.6516 9.48501 6.99992 14 6.99992C18.515 6.99992 22.1667 10.6516 22.1667 15.1666C22.1667 19.6816 18.515 23.3333 14 23.3333Z" fill="#F7941D"/>
</svg>
