<svg width="28" height="28" viewBox="0 0 28 28" fill="none" xmlns="http://www.w3.org/2000/svg">
<path d="M19.8333 14.0003C16.6133 14.0003 14 16.6137 14 19.8337C14 23.0537 16.6133 25.667 19.8333 25.667C23.0533 25.667 25.6667 23.0537 25.6667 19.8337C25.6667 16.6137 23.0533 14.0003 19.8333 14.0003ZM21.7583 22.5753L19.25 20.067V16.3337H20.4167V19.5887L22.575 21.747L21.7583 22.5753ZM21 3.50033H17.29C16.8 2.14699 15.5167 1.16699 14 1.16699C12.4833 1.16699 11.2 2.14699 10.71 3.50033H7C5.71666 3.50033 4.66666 4.55033 4.66666 5.83366V23.3337C4.66666 24.617 5.71666 25.667 7 25.667H14.1283C13.44 25.002 12.88 24.2087 12.4717 23.3337H7V5.83366H9.33333V9.33366H18.6667V5.83366H21V11.7603C21.8283 11.877 22.61 12.122 23.3333 12.4603V5.83366C23.3333 4.55033 22.2833 3.50033 21 3.50033ZM14 5.83366C13.3583 5.83366 12.8333 5.30866 12.8333 4.66699C12.8333 4.02533 13.3583 3.50033 14 3.50033C14.6417 3.50033 15.1667 4.02533 15.1667 4.66699C15.1667 5.30866 14.6417 5.83366 14 5.83366Z" fill="#F7941D"/>
</svg>
