<svg width="28" height="28" viewBox="0 0 28 28" fill="none" xmlns="http://www.w3.org/2000/svg">
<path d="M14 7.00033V10.5003L18.6667 5.83366L14 1.16699V4.66699C8.84334 4.66699 4.66667 8.84366 4.66667 14.0003C4.66667 15.832 5.20334 17.5353 6.11334 18.9703L7.81667 17.267C7.29167 16.2987 7 15.1787 7 14.0003C7 10.1387 10.1383 7.00033 14 7.00033ZM21.8867 9.03032L20.1833 10.7337C20.6967 11.7137 21 12.822 21 14.0003C21 17.862 17.8617 21.0003 14 21.0003V17.5003L9.33334 22.167L14 26.8337V23.3337C19.1567 23.3337 23.3333 19.157 23.3333 14.0003C23.3333 12.1687 22.7967 10.4653 21.8867 9.03032Z" fill="#F7941D"/>
</svg>
